<svg width="248" height="306" viewBox="0 0 248 306" fill="none" xmlns="http://www.w3.org/2000/svg">
<path d="M128.379 1.17173C125.273 -0.210726 121.727 -0.210726 118.621 1.17173L35.2305 38.2868C23.3927 43.5556 27.1525 61.25 40.1099 61.25H206.89C219.848 61.25 223.607 43.5556 211.77 38.2868L128.379 1.17173Z" fill="white"/>
<path d="M55 88C65.4934 88 74 96.5066 74 107V180C74 190.493 65.4934 199 55 199C44.5066 199 36 190.493 36 180V107C36 96.5066 44.5066 88 55 88Z" fill="white"/>
<path d="M143 107C143 96.5066 134.493 88 124 88C113.507 88 105 96.5066 105 107V180C105 190.493 113.507 199 124 199C134.493 199 143 190.493 143 180V107Z" fill="white"/>
<path d="M212 107C212 96.5066 203.493 88 193 88C182.507 88 174 96.5066 174 107V180C174 190.493 182.507 199 193 199C203.493 199 212 190.493 212 180V107Z" fill="white"/>
<path d="M217.081 255C225.365 254.955 232.045 248.203 232 239.919C231.955 231.635 225.203 224.955 216.919 225L31.9189 226C23.6348 226.045 16.9555 232.797 17.0002 241.081C17.045 249.365 23.797 256.045 32.0811 256L217.081 255Z" fill="white"/>
<path d="M248 287.146C248 297.087 239.941 305.146 230 305.146L18 305.146C8.05887 305.146 -7.62939e-06 297.087 0 287.146C7.6294e-06 277.205 8.05888 269.146 18 269.146L230 269.146C239.941 269.146 248 277.205 248 287.146Z" fill="white"/>
</svg>
